<?xml version="1.0" encoding="UTF-8" standalone="no"?>
<svg
   id="Layer_1"
   data-name="Layer 1"
   viewBox="0 0 64 64"
   version="1.1"
   sodipodi:docname="csharp.svg"
   inkscape:version="1.1.1 (3bf5ae0d25, 2021-09-20, custom)"
   xmlns:inkscape="http://www.inkscape.org/namespaces/inkscape"
   xmlns:sodipodi="http://sodipodi.sourceforge.net/DTD/sodipodi-0.dtd"
   xmlns="http://www.w3.org/2000/svg"
   xmlns:svg="http://www.w3.org/2000/svg"
   xmlns:rdf="http://www.w3.org/1999/02/22-rdf-syntax-ns#"
   xmlns:cc="http://creativecommons.org/ns#"
   xmlns:dc="http://purl.org/dc/elements/1.1/">
  <sodipodi:namedview
     id="namedview17"
     pagecolor="#ffffff"
     bordercolor="#666666"
     borderopacity="1.0"
     inkscape:pageshadow="2"
     inkscape:pageopacity="0.0"
     inkscape:pagecheckerboard="0"
     showgrid="false"
     inkscape:zoom="11.640625"
     inkscape:cx="40.075168"
     inkscape:cy="40.67651"
     inkscape:window-width="1920"
     inkscape:window-height="1022"
     inkscape:window-x="0"
     inkscape:window-y="28"
     inkscape:window-maximized="1"
     inkscape:current-layer="Layer_1" />
  <defs
     id="defs4">
    <style
       id="style2">.cls-1{fill:#05930c;}.cls-2,.cls-3{fill:#fff;}.cls-2{opacity:0.1;}</style>
  </defs>
  <title
     id="title6">logo_Csharp</title>
  <circle
     class="cls-1"
     cx="32"
     cy="32"
     r="32"
     id="circle8"
     style="fill:#ffffff;stroke:#000000;stroke-opacity:1;stroke-width:2;stroke-miterlimit:4;stroke-dasharray:none" />
  <path
     class="cls-2"
     d="M9.82,9A32,32,0,1,0,55,54.18Z"
     id="path10"
     style="fill:#ffffff" />
  <path
     class="cls-3"
     d="M30.43,43.55a14.78,14.78,0,0,1-7,1.48,11.23,11.23,0,0,1-8.61-3.46,12.78,12.78,0,0,1-3.23-9.09,13.39,13.39,0,0,1,3.64-9.77A12.35,12.35,0,0,1,24.49,19a14.8,14.8,0,0,1,5.94,1v3.15a12,12,0,0,0-6-1.51,9.17,9.17,0,0,0-7,2.9,10.93,10.93,0,0,0-2.7,7.75,10.4,10.4,0,0,0,2.52,7.34,8.58,8.58,0,0,0,6.62,2.73,12.42,12.42,0,0,0,6.57-1.69Z"
     id="path12"
     style="fill:#000000" />
  <path
     class="cls-3"
     d="M52.76,26.46l-.4,1.86H47.76L46.66,33.6H51.6l-.47,1.86H46.29l-1.55,7H42.53l1.51-7H39.64l-1.48,7H36l1.48-7H32.84l.35-1.86h4.66l1.07-5.27H34.05l.37-1.86h4.87l1.48-7.07H43l-1.48,7.07h4.43l1.51-7.07h2.16l-1.48,7.07Zm-7.17,1.86H41.15L40,33.6h4.46Z"
     id="path14"
     style="fill:#000000" />
  <metadata
     id="metadata834">
    <rdf:RDF>
      <cc:Work
         rdf:about="">
        <dc:title>logo_Csharp</dc:title>
      </cc:Work>
    </rdf:RDF>
  </metadata>
</svg>
